<svg width="1365" height="248" viewBox="0 0 1365 248" fill="none" xmlns="http://www.w3.org/2000/svg">
<path opacity="0.19" d="M11.8479 11.9888V106.839H23.048V118.039H11.8479V235.989H23.3979V246.489H0.647949V1.48875H23.3979V11.9888H11.8479ZM61.2636 1.48875L52.5136 246.489H37.1136L27.6636 1.48875H39.2136L43.4136 137.639L45.0761 219.889H45.2511L46.9136 137.639L50.4136 1.48875H61.2636ZM78.1565 11.9888V106.839H89.3565V118.039H78.1565V235.989H89.7065V246.489H66.9565V1.48875H89.7065V11.9888H78.1565ZM94.9839 1.48875H110.034L119.834 141.489L124.384 217.964H124.559L122.284 83.3888L121.934 1.48875H133.134V246.489H118.084L108.284 106.489L103.734 30.0138H103.559L105.834 164.589L106.184 246.489H94.9839V1.48875ZM148.985 11.9888H138.485V1.48875H170.685V11.9888H160.185V246.489H148.985V11.9888ZM188.989 247.889C183.856 247.889 179.976 246.43 177.351 243.514C174.726 240.597 173.414 236.28 173.414 230.564V169.664H184.614V230.564C184.614 234.88 186.072 237.039 188.989 237.039C191.906 237.039 193.364 234.88 193.364 230.564V184.014C193.364 176.314 192.956 168.876 192.139 161.701C191.322 154.468 189.981 146.739 188.114 138.514L177.614 91.2638C176.097 84.3221 175.018 77.2638 174.376 70.0888C173.735 62.9138 173.414 54.8054 173.414 45.7638V17.4138C173.414 11.6971 174.726 7.38043 177.351 4.46377C179.976 1.54709 183.856 0.08875 188.989 0.08875C194.122 0.08875 198.001 1.54709 200.626 4.46377C203.251 7.38043 204.564 11.6971 204.564 17.4138V66.0638H193.364V17.4138C193.364 13.0971 191.906 10.9388 188.989 10.9388C186.072 10.9388 184.614 13.0971 184.614 17.4138V45.7638C184.614 54.4554 184.935 62.1554 185.576 68.8638C186.218 75.5138 187.181 81.8138 188.464 87.7638L198.964 135.014C200.831 143.472 202.231 151.58 203.164 159.339C204.097 167.039 204.564 175.264 204.564 184.014V230.564C204.564 236.28 203.251 240.597 200.626 243.514C198.001 246.43 194.122 247.889 188.989 247.889ZM243.928 11.9888V106.839H255.128V118.039H243.928V235.989H255.478V246.489H232.728V1.48875H255.478V11.9888H243.928ZM293.344 1.48875L284.594 246.489H269.194L259.744 1.48875H271.294L275.494 137.639L277.156 219.889H277.331L278.994 137.639L282.494 1.48875H293.344ZM310.237 11.9888V106.839H321.437V118.039H310.237V235.989H321.787V246.489H299.037V1.48875H321.787V11.9888H310.237ZM327.064 1.48875H342.114L351.914 141.489L356.464 217.964H356.639L354.364 83.3888L354.014 1.48875H365.214V246.489H350.164L340.364 106.489L335.814 30.0138H335.639L337.914 164.589L338.264 246.489H327.064V1.48875ZM381.065 11.9888H370.565V1.48875H402.765V11.9888H392.265V246.489H381.065V11.9888ZM421.069 247.889C415.936 247.889 412.057 246.43 409.432 243.514C406.807 240.597 405.494 236.28 405.494 230.564V169.664H416.694V230.564C416.694 234.88 418.152 237.039 421.069 237.039C423.986 237.039 425.444 234.88 425.444 230.564V184.014C425.444 176.314 425.036 168.876 424.219 161.701C423.402 154.468 422.061 146.739 420.194 138.514L409.694 91.2638C408.177 84.3221 407.098 77.2638 406.457 70.0888C405.815 62.9138 405.494 54.8054 405.494 45.7638V17.4138C405.494 11.6971 406.807 7.38043 409.432 4.46377C412.057 1.54709 415.936 0.08875 421.069 0.08875C426.202 0.08875 430.082 1.54709 432.707 4.46377C435.332 7.38043 436.644 11.6971 436.644 17.4138V66.0638H425.444V17.4138C425.444 13.0971 423.986 10.9388 421.069 10.9388C418.152 10.9388 416.694 13.0971 416.694 17.4138V45.7638C416.694 54.4554 417.015 62.1554 417.657 68.8638C418.298 75.5138 419.261 81.8138 420.544 87.7638L431.044 135.014C432.911 143.472 434.311 151.58 435.244 159.339C436.177 167.039 436.644 175.264 436.644 184.014V230.564C436.644 236.28 435.332 240.597 432.707 243.514C430.082 246.43 426.202 247.889 421.069 247.889ZM476.008 11.9888V106.839H487.208V118.039H476.008V235.989H487.558V246.489H464.808V1.48875H487.558V11.9888H476.008ZM525.424 1.48875L516.674 246.489H501.274L491.824 1.48875H503.374L507.574 137.639L509.236 219.889H509.411L511.074 137.639L514.574 1.48875H525.424ZM542.317 11.9888V106.839H553.517V118.039H542.317V235.989H553.867V246.489H531.117V1.48875H553.867V11.9888H542.317ZM559.144 1.48875H574.194L583.994 141.489L588.544 217.964H588.719L586.444 83.3888L586.094 1.48875H597.294V246.489H582.244L572.444 106.489L567.894 30.0138H567.719L569.994 164.589L570.344 246.489H559.144V1.48875ZM613.145 11.9888H602.645V1.48875H634.845V11.9888H624.345V246.489H613.145V11.9888ZM653.149 247.889C648.016 247.889 644.137 246.43 641.512 243.514C638.887 240.597 637.574 236.28 637.574 230.564V169.664H648.774V230.564C648.774 234.88 650.232 237.039 653.149 237.039C656.066 237.039 657.524 234.88 657.524 230.564V184.014C657.524 176.314 657.116 168.876 656.299 161.701C655.482 154.468 654.141 146.739 652.274 138.514L641.774 91.2638C640.257 84.3221 639.178 77.2638 638.537 70.0888C637.895 62.9138 637.574 54.8054 637.574 45.7638V17.4138C637.574 11.6971 638.887 7.38043 641.512 4.46377C644.137 1.54709 648.016 0.08875 653.149 0.08875C658.282 0.08875 662.162 1.54709 664.787 4.46377C667.412 7.38043 668.724 11.6971 668.724 17.4138V66.0638H657.524V17.4138C657.524 13.0971 656.066 10.9388 653.149 10.9388C650.232 10.9388 648.774 13.0971 648.774 17.4138V45.7638C648.774 54.4554 649.095 62.1554 649.737 68.8638C650.378 75.5138 651.341 81.8138 652.624 87.7638L663.124 135.014C664.991 143.472 666.391 151.58 667.324 159.339C668.257 167.039 668.724 175.264 668.724 184.014V230.564C668.724 236.28 667.412 240.597 664.787 243.514C662.162 246.43 658.282 247.889 653.149 247.889ZM708.088 11.9888V106.839H719.288V118.039H708.088V235.989H719.638V246.489H696.888V1.48875H719.638V11.9888H708.088ZM757.504 1.48875L748.754 246.489H733.354L723.904 1.48875H735.454L739.654 137.639L741.316 219.889H741.491L743.154 137.639L746.654 1.48875H757.504ZM774.397 11.9888V106.839H785.597V118.039H774.397V235.989H785.947V246.489H763.197V1.48875H785.947V11.9888H774.397ZM791.224 1.48875H806.274L816.074 141.489L820.624 217.964H820.799L818.524 83.3888L818.174 1.48875H829.374V246.489H814.324L804.524 106.489L799.974 30.0138H799.799L802.074 164.589L802.424 246.489H791.224V1.48875ZM845.225 11.9888H834.725V1.48875H866.925V11.9888H856.425V246.489H845.225V11.9888ZM885.229 247.889C880.096 247.889 876.217 246.43 873.592 243.514C870.967 240.597 869.654 236.28 869.654 230.564V169.664H880.854V230.564C880.854 234.88 882.313 237.039 885.229 237.039C888.146 237.039 889.604 234.88 889.604 230.564V184.014C889.604 176.314 889.196 168.876 888.379 161.701C887.563 154.468 886.221 146.739 884.354 138.514L873.854 91.2638C872.338 84.3221 871.258 77.2638 870.617 70.0888C869.975 62.9138 869.654 54.8054 869.654 45.7638V17.4138C869.654 11.6971 870.967 7.38043 873.592 4.46377C876.217 1.54709 880.096 0.08875 885.229 0.08875C890.363 0.08875 894.242 1.54709 896.867 4.46377C899.492 7.38043 900.804 11.6971 900.804 17.4138V66.0638H889.604V17.4138C889.604 13.0971 888.146 10.9388 885.229 10.9388C882.313 10.9388 880.854 13.0971 880.854 17.4138V45.7638C880.854 54.4554 881.175 62.1554 881.817 68.8638C882.458 75.5138 883.421 81.8138 884.704 87.7638L895.204 135.014C897.071 143.472 898.471 151.58 899.404 159.339C900.338 167.039 900.804 175.264 900.804 184.014V230.564C900.804 236.28 899.492 240.597 896.867 243.514C894.242 246.43 890.363 247.889 885.229 247.889ZM940.168 11.9888V106.839H951.368V118.039H940.168V235.989H951.718V246.489H928.968V1.48875H951.718V11.9888H940.168ZM989.584 1.48875L980.834 246.489H965.434L955.984 1.48875H967.534L971.734 137.639L973.396 219.889H973.571L975.234 137.639L978.734 1.48875H989.584ZM1006.48 11.9888V106.839H1017.68V118.039H1006.48V235.989H1018.03V246.489H995.277V1.48875H1018.03V11.9888H1006.48ZM1023.3 1.48875H1038.35L1048.15 141.489L1052.7 217.964H1052.88L1050.6 83.3888L1050.25 1.48875H1061.45V246.489H1046.4L1036.6 106.489L1032.05 30.0138H1031.88L1034.15 164.589L1034.5 246.489H1023.3V1.48875ZM1077.31 11.9888H1066.81V1.48875H1099.01V11.9888H1088.51V246.489H1077.31V11.9888ZM1117.31 247.889C1112.18 247.889 1108.3 246.43 1105.67 243.514C1103.05 240.597 1101.73 236.28 1101.73 230.564V169.664H1112.93V230.564C1112.93 234.88 1114.39 237.039 1117.31 237.039C1120.23 237.039 1121.68 234.88 1121.68 230.564V184.014C1121.68 176.314 1121.28 168.876 1120.46 161.701C1119.64 154.468 1118.3 146.739 1116.43 138.514L1105.93 91.2638C1104.42 84.3221 1103.34 77.2638 1102.7 70.0888C1102.06 62.9138 1101.73 54.8054 1101.73 45.7638V17.4138C1101.73 11.6971 1103.05 7.38043 1105.67 4.46377C1108.3 1.54709 1112.18 0.08875 1117.31 0.08875C1122.44 0.08875 1126.32 1.54709 1128.95 4.46377C1131.57 7.38043 1132.88 11.6971 1132.88 17.4138V66.0638H1121.68V17.4138C1121.68 13.0971 1120.23 10.9388 1117.31 10.9388C1114.39 10.9388 1112.93 13.0971 1112.93 17.4138V45.7638C1112.93 54.4554 1113.26 62.1554 1113.9 68.8638C1114.54 75.5138 1115.5 81.8138 1116.78 87.7638L1127.28 135.014C1129.15 143.472 1130.55 151.58 1131.48 159.339C1132.42 167.039 1132.88 175.264 1132.88 184.014V230.564C1132.88 236.28 1131.57 240.597 1128.95 243.514C1126.32 246.43 1122.44 247.889 1117.31 247.889ZM1172.25 11.9888V106.839H1183.45V118.039H1172.25V235.989H1183.8V246.489H1161.05V1.48875H1183.8V11.9888H1172.25ZM1221.66 1.48875L1212.91 246.489H1197.51L1188.06 1.48875H1199.61L1203.81 137.639L1205.48 219.889H1205.65L1207.31 137.639L1210.81 1.48875H1221.66ZM1238.56 11.9888V106.839H1249.76V118.039H1238.56V235.989H1250.11V246.489H1227.36V1.48875H1250.11V11.9888H1238.56ZM1255.38 1.48875H1270.43L1280.23 141.489L1284.78 217.964H1284.96L1282.68 83.3888L1282.33 1.48875H1293.53V246.489H1278.48L1268.68 106.489L1264.13 30.0138H1263.96L1266.23 164.589L1266.58 246.489H1255.38V1.48875ZM1309.39 11.9888H1298.89V1.48875H1331.09V11.9888H1320.59V246.489H1309.39V11.9888ZM1349.39 247.889C1344.26 247.889 1340.38 246.43 1337.75 243.514C1335.13 240.597 1333.81 236.28 1333.81 230.564V169.664H1345.01V230.564C1345.01 234.88 1346.47 237.039 1349.39 237.039C1352.31 237.039 1353.76 234.88 1353.76 230.564V184.014C1353.76 176.314 1353.36 168.876 1352.54 161.701C1351.72 154.468 1350.38 146.739 1348.51 138.514L1338.01 91.2638C1336.5 84.3221 1335.42 77.2638 1334.78 70.0888C1334.14 62.9138 1333.81 54.8054 1333.81 45.7638V17.4138C1333.81 11.6971 1335.13 7.38043 1337.75 4.46377C1340.38 1.54709 1344.26 0.08875 1349.39 0.08875C1354.52 0.08875 1358.4 1.54709 1361.03 4.46377C1363.65 7.38043 1364.96 11.6971 1364.96 17.4138V66.0638H1353.76V17.4138C1353.76 13.0971 1352.31 10.9388 1349.39 10.9388C1346.47 10.9388 1345.01 13.0971 1345.01 17.4138V45.7638C1345.01 54.4554 1345.34 62.1554 1345.98 68.8638C1346.62 75.5138 1347.58 81.8138 1348.86 87.7638L1359.36 135.014C1361.23 143.472 1362.63 151.58 1363.56 159.339C1364.5 167.039 1364.96 175.264 1364.96 184.014V230.564C1364.96 236.28 1363.65 240.597 1361.03 243.514C1358.4 246.43 1354.52 247.889 1349.39 247.889Z" fill="#1D1D1D"/>
</svg>
