<svg width="102" height="133" viewBox="0 0 102 133" fill="none" xmlns="http://www.w3.org/2000/svg">
<path d="M94.7548 71.8043V71.8043C98.5011 71.8043 101.538 74.8412 101.538 78.5875V83.298C101.538 89.5418 96.4764 94.6034 90.2327 94.6034V94.6034C80.8115 94.6034 73.8399 91.463 69.3178 85.1823C63.4138 93.2216 54.3068 97.2413 41.9965 97.2413V97.2413C34.1518 97.2413 25.0384 102.914 25.0384 110.759V120.135C25.0384 126.847 19.5972 132.288 12.8852 132.288V132.288C6.17313 132.288 0.731934 126.847 0.731934 120.135V12.5454C0.731934 5.8333 6.17313 0.39209 12.8852 0.39209V0.39209C19.5972 0.39209 25.0384 5.83329 25.0384 12.5453V55.0346C25.0384 61.3154 26.7342 66.1516 30.1259 69.5432C33.5175 72.9348 38.0396 74.6306 43.6923 74.6306C49.973 74.6306 54.9976 72.6836 58.7661 68.7895C62.5345 64.8954 64.4188 59.0543 64.4188 51.2662V12.5453C64.4188 5.83328 69.86 0.39209 76.572 0.39209V0.39209C83.2841 0.39209 88.7253 5.83329 88.7253 12.5453V65.7747C88.7253 69.7944 90.7351 71.8043 94.7548 71.8043Z" fill="white"/>
</svg>
