<svg width="53" height="66" viewBox="0 0 53 66" fill="none" xmlns="http://www.w3.org/2000/svg">
<path d="M40.6465 25.5978H43.0936V28.1373H45.7658V30.6924H48.2779V33.533H51.8354V32.6311H49.227V30.0241H46.6349V27.2017H43.9627V24.5947H40.6465V25.5978Z" fill="white"/>
<path d="M43.6111 46.9651C46.6024 44.422 49.0495 40.859 50.8051 36.0075C48.2594 35.4167 45.9089 36.4635 43.7539 39.1479C42.3673 41.5128 42.2802 44.1197 43.6111 46.9651Z" fill="white"/>
<path d="M37.4389 42.4952C39.2114 42.4952 40.6484 41.0041 40.6484 39.1646C40.6484 37.3252 39.2114 35.834 37.4389 35.834C35.6664 35.834 34.2295 37.3252 34.2295 39.1646C34.2295 41.0041 35.6664 42.4952 37.4389 42.4952Z" fill="white"/>
<path d="M39.2031 33.0266C40.8122 33.0266 42.1167 31.6729 42.1167 30.0031C42.1167 28.3332 40.8122 26.9795 39.2031 26.9795C37.594 26.9795 36.2896 28.3332 36.2896 30.0031C36.2896 31.6729 37.594 33.0266 39.2031 33.0266Z" fill="white"/>
<path d="M43.9639 21.8889L50.0532 15.5732C52.0327 19.6456 52.4899 24.7511 52.2752 30.3094L43.9639 21.8889Z" fill="white"/>
<path d="M38.0082 2.54102L31.3213 9.4792L31.6543 10.2703L31.8898 9.78023H32.4271L41.3777 19.0689V20.6282L48.5798 13.1554H47.0447L38.1637 3.93901V3.25386L38.7589 3.16475L38.0082 2.54102Z" fill="white"/>
<path d="M31.794 10.5068C32.3846 11.711 33.1214 12.6369 33.6424 13.3835C33.9266 13.7917 33.8884 14.3649 33.7584 14.8513C33.5855 15.5136 33.1516 15.9242 32.5261 16.1494C32.0962 16.3101 31.6302 16.3365 31.186 16.2252C30.9512 16.1679 30.7301 16.0618 30.5359 15.9134C30.3417 15.7651 30.1784 15.5774 30.0558 15.3619C29.7077 14.7598 29.5058 13.9169 29.9305 13.369C30.6204 12.4652 31.2433 11.5084 31.794 10.5068Z" fill="white"/>
<path d="M26.4976 8.45962V10.898L35.3833 1.67557L33.7739 1.07471L26.4976 8.45962Z" fill="white"/>
<path d="M32.0634 39.9976H30.5283V45.1873H32.0634V39.9976Z" fill="white"/>
<path d="M28.7935 41.7981V43.3911H33.7944V41.7981H28.7935Z" fill="white"/>
<path d="M35.1167 47.0412C35.6325 47.0412 36.0507 46.6072 36.0507 46.0719C36.0507 45.5365 35.6325 45.1025 35.1167 45.1025C34.6008 45.1025 34.1826 45.5365 34.1826 46.0719C34.1826 46.6072 34.6008 47.0412 35.1167 47.0412Z" fill="white"/>
<path d="M41.538 43.6396H38.1035V47.2039H41.538V43.6396Z" fill="white"/>
<path d="M28.6229 52.729H26.1758V59.4456H28.6229V52.729Z" fill="white"/>
<path d="M23.772 62.0654H29.1872L26.4337 65.0613L23.772 62.0654Z" fill="white"/>
<path d="M30.8646 2.08346C31.3561 2.08346 31.7545 1.66997 31.7545 1.15989C31.7545 0.649823 31.3561 0.236328 30.8646 0.236328C30.3731 0.236328 29.9746 0.649823 29.9746 1.15989C29.9746 1.66997 30.3731 2.08346 30.8646 2.08346Z" fill="white"/>
<path d="M20.3426 11.2153C20.8629 11.2153 21.2847 10.7775 21.2847 10.2375C21.2847 9.69752 20.8629 9.25977 20.3426 9.25977C19.8222 9.25977 19.4004 9.69752 19.4004 10.2375C19.4004 10.7775 19.8222 11.2153 20.3426 11.2153Z" fill="white"/>
<path d="M8.94668 21.6107C9.45036 21.6107 9.85868 21.1869 9.85868 20.6642C9.85868 20.1415 9.45036 19.7178 8.94668 19.7178C8.44299 19.7178 8.03467 20.1415 8.03467 20.6642C8.03467 21.1869 8.44299 21.6107 8.94668 21.6107Z" fill="white"/>
<path d="M27.4511 39.468C27.9465 39.468 28.348 39.0513 28.348 38.5372C28.348 38.0232 27.9465 37.6064 27.4511 37.6064C26.9558 37.6064 26.5542 38.0232 26.5542 38.5372C26.5542 39.0513 26.9558 39.468 27.4511 39.468Z" fill="white"/>
<path d="M9.88213 47.4599C10.4127 47.4599 10.8429 47.0135 10.8429 46.4628C10.8429 45.9122 10.4127 45.4658 9.88213 45.4658C9.35153 45.4658 8.92139 45.9122 8.92139 46.4628C8.92139 47.0135 9.35153 47.4599 9.88213 47.4599Z" fill="white"/>
<path d="M15.002 2.7934L17.6463 5.5376L18.3181 4.84041L15.8629 2.29248L15.002 2.75125" fill="white"/>
<path d="M13.8486 41.2119V44.3968H16.9072L13.8486 41.2119Z" fill="white"/>
<path d="M20.5405 43.6826L19.9448 44.3008L25.3755 49.9365L25.9712 49.3184L20.5405 43.6826Z" fill="white"/>
<path d="M10.6836 48.627L22.5641 60.9573C25.0274 57.9337 25.6482 54.9367 24.5273 51.9456C23.635 49.5675 21.7762 47.7227 19.4881 46.7871C16.5443 45.583 13.6087 46.0382 10.6836 48.627Z" fill="white"/>
<path d="M22.8096 43.642L25.3611 40.9941L25.9517 41.607V42.1381L32.1373 48.5585H42.1451L30.1613 60.9935V50.6753L23.9339 44.2128H23.2609L22.8096 43.642Z" fill="white"/>
<path d="M35.5916 33.4038L31.2529 28.9014L26.9143 33.4038L31.2529 37.9063L35.5916 33.4038Z" fill="white"/>
<path d="M27.9084 25.3652L27.1054 26.1985L27.4535 26.5597L22.8877 31.298L22.8935 31.304C21.7499 30.4793 20.3498 30.1301 18.97 30.3254C17.5903 30.5206 16.3314 31.2462 15.4424 32.3585C14.5534 33.4708 14.099 34.8888 14.1692 36.3321C14.2393 37.7754 14.8289 39.1388 15.8213 40.1526C16.8136 41.1664 18.1365 41.7568 19.5282 41.8069C20.9199 41.8571 22.279 41.3634 23.3368 40.4235C24.3946 39.4836 25.0739 38.166 25.2404 36.7312C25.4069 35.2965 25.0484 33.8491 24.236 32.6755L24.2452 32.6839L28.8737 27.8807L29.1766 28.1949L29.9064 27.4375L27.9084 25.3652Z" fill="white"/>
<path d="M6.89028 44.3975H12.2022V34.6019L12.7093 34.0757L12.1303 33.4736H5.4248L6.82995 34.9318V44.3975H6.89028Z" fill="white"/>
<path d="M1.19482 32.8823C1.9792 36.5031 3.20913 39.4183 4.77904 41.7989C5.20951 40.1215 5.23736 38.4899 4.77904 36.9149C4.10057 35.1605 2.82518 33.7256 1.19482 32.8823Z" fill="white"/>
<path d="M43.91 33.7401C44.3368 33.7401 44.6827 33.3811 44.6827 32.9382C44.6827 32.4953 44.3368 32.1362 43.91 32.1362C43.4832 32.1362 43.1372 32.4953 43.1372 32.9382C43.1372 33.3811 43.4832 33.7401 43.91 33.7401Z" fill="white"/>
<path d="M42.3978 35.2079C42.8246 35.2079 43.1705 34.8489 43.1705 34.406C43.1705 33.963 42.8246 33.604 42.3978 33.604C41.971 33.604 41.625 33.963 41.625 34.406C41.625 34.8489 41.971 35.2079 42.3978 35.2079Z" fill="white"/>
<path d="M45.4222 35.3109C45.849 35.3109 46.195 34.9519 46.195 34.509C46.195 34.0661 45.849 33.707 45.4222 33.707C44.9954 33.707 44.6494 34.0661 44.6494 34.509C44.6494 34.9519 44.9954 35.3109 45.4222 35.3109Z" fill="white"/>
<path d="M43.91 36.8812C44.3368 36.8812 44.6827 36.5222 44.6827 36.0793C44.6827 35.6364 44.3368 35.2773 43.91 35.2773C43.4832 35.2773 43.1372 35.6364 43.1372 36.0793C43.1372 36.5222 43.4832 36.8812 43.91 36.8812Z" fill="white"/>
<path d="M20.3154 22.2517L22.3761 21.793V23.6136L23.7278 22.3782L24.8383 24.2157L23.2289 24.7912L24.7095 26.0532L23.3821 27.3898L22.2392 25.9027L21.8365 27.816L19.9522 27.0381L20.9512 25.4102L19.1318 25.5438L19.2525 23.3632L21.0069 23.9905L20.3154 22.2517Z" fill="white"/>
<path d="M16.6275 23.9566L16.6159 23.9422C16.537 23.8374 16.4523 23.7375 16.3641 23.6411C15.1411 22.1685 14.1061 20.738 13.6466 19.4399C13.0124 20.8951 12.1672 22.2409 11.1403 23.4304C10.9396 23.616 10.7584 23.823 10.5996 24.0481C10.1887 24.6361 9.94353 25.3312 9.8917 26.0555C9.83987 26.7799 9.98339 27.5049 10.3062 28.1494C10.629 28.7939 11.1183 29.3325 11.7193 29.7047C12.3203 30.0769 13.0094 30.2682 13.7092 30.257C14.4091 30.2458 15.0921 30.0327 15.6818 29.6414C16.2715 29.2502 16.7446 28.6963 17.0482 28.0418C17.3517 27.3873 17.4736 26.658 17.4004 25.9357C17.3271 25.2133 17.0615 24.5264 16.6333 23.9518L16.6275 23.9566Z" fill="white"/>
<path d="M22.7148 19.4604L22.709 19.4508V19.4424L21.8968 18.1997L21.0927 19.4267C20.9883 19.5781 20.9257 19.7562 20.9117 19.9418C20.8977 20.1275 20.9328 20.3135 21.0132 20.4799C21.0936 20.6464 21.2163 20.7868 21.368 20.8862C21.5197 20.9856 21.6947 21.0401 21.8741 21.0438C22.0535 21.0475 22.2304 21.0003 22.3858 20.9073C22.5413 20.8143 22.6693 20.6791 22.756 20.5161C22.8428 20.3532 22.885 20.1687 22.8782 19.9827C22.8713 19.7966 22.8157 19.616 22.7172 19.4604H22.7148Z" fill="white"/>
<path d="M9.30762 17.7335L11.1107 19.6048L13.7087 16.9099L16.2683 19.5662L17.8719 17.9009L13.5845 13.4517L9.30762 17.7335Z" fill="white"/>
<path d="M12.6235 9.14844H15.833L18.0004 11.3977V12.0998L21.8643 16.1095V17.9915L18.1304 14.1155L17.6465 14.6176L12.6235 9.14844Z" fill="white"/>
<path d="M0.674805 23.312L0.819844 31.1978H8.03701V23.312L5.45647 20.6328V23.3457L0.674805 23.312Z" fill="white"/>
<path d="M2.3479 16.7612C1.68768 18.264 1.23167 19.9666 0.931152 21.8186C2.01373 21.5079 2.91529 20.9095 3.44324 19.7138C3.56855 18.335 3.0963 17.4367 2.3479 16.7612Z" fill="white"/>
<path d="M23.7759 17.3559L28.177 12.7959V16.7611L34.4659 23.2875L35.1528 22.5746L33.2847 20.6372C32.3564 19.002 34.1549 17.8195 35.3141 18.5324L37.0418 20.3253H37.5999L37.9317 20.6709V21.0466L39.468 22.6408L37.3632 24.8251L35.7643 23.1646L35.0855 23.8606L36.5672 25.3983L35.9662 26.022L32.0083 21.9111L31.1682 22.7829L35.2468 27.0154L33.7035 28.6169L29.7225 24.4844H29.1423L28.6596 23.9834V23.5716L27.8393 22.7203C27.1779 21.4656 28.4879 20.3121 29.4939 21.0044L30.4372 21.9822L31.1543 21.238L27.5434 17.4848L23.7759 17.3559Z" fill="white"/>
<path d="M18.5818 2.80209L22.2948 6.6553H16.0756C15.3132 5.03575 14.219 4.16155 12.6306 4.38913C10.8704 4.58901 9.75415 5.4608 9.24478 7.3284C9.07461 7.32352 8.90433 7.33197 8.73539 7.35369C7.98798 7.45638 7.29349 7.8101 6.75797 8.36084C6.22245 8.91158 5.87534 9.62907 5.76963 10.4037C5.7218 10.769 5.71557 11.1388 5.75106 11.5055C4.37029 12.0137 3.58011 13.0998 3.47453 14.8566C3.43376 15.403 3.51024 15.952 3.69847 16.4641C4.24381 17.8886 5.49232 18.5364 7.08775 18.8001C7.23273 18.9488 7.42085 19.0439 7.62307 19.0706C7.8253 19.0973 8.03037 19.0542 8.20663 18.9479C8.38289 18.8417 8.52054 18.6781 8.59832 18.4826C8.6761 18.287 8.68969 18.0704 8.63699 17.866C8.5843 17.6616 8.46824 17.481 8.30674 17.3519C8.14525 17.2228 7.94729 17.1524 7.74344 17.1517C7.53959 17.151 7.34118 17.2199 7.17884 17.3479C7.01651 17.4759 6.89927 17.6557 6.84524 17.8597C5.99241 17.7092 5.32059 17.3359 4.85066 16.711C4.41078 16.1152 4.21259 15.3647 4.29835 14.6194C4.40046 13.7006 4.911 12.9107 5.95992 12.2918C6.39968 13.6164 7.10515 14.2064 8.01136 14.2389C8.21316 14.2506 8.41486 14.214 8.6008 14.1317C8.79702 14.0432 8.96 13.8906 9.06492 13.697C9.18234 13.4604 9.21641 13.1887 9.16123 12.9288C8.99067 12.0004 8.12855 11.4212 6.42405 11.29C6.48322 10.4001 6.66771 9.61866 7.16433 9.12255C7.86748 8.45426 8.45344 8.1749 9.24129 8.24836C9.52325 9.80289 10.0802 10.4904 10.7578 10.7987C10.9449 10.8863 11.1532 10.913 11.3552 10.8752C11.5572 10.8373 11.7434 10.7368 11.8891 10.5868L11.8996 10.5759C12.075 10.3722 12.1834 10.1159 12.2093 9.8441C12.2351 9.57226 12.1771 9.29891 12.0435 9.06355C11.7035 8.42055 11.0363 7.93167 10.1011 7.5608C10.1564 6.94238 10.4231 6.36491 10.853 5.93282C11.1144 5.68223 11.4209 5.48757 11.7549 5.35999C12.0889 5.2324 12.4439 5.17438 12.7995 5.18926C13.1551 5.20413 13.5044 5.2916 13.8274 5.44667C14.1504 5.60173 14.4408 5.82135 14.682 6.09297C15.0435 6.52262 15.3469 7.00146 15.5836 7.51625H23.0525V14.4207L24.5981 12.818V7.51986L29.1326 2.80209C30.2488 -0.514078 18.0945 -1.33168 18.5818 2.80209Z" fill="white"/>
</svg>
